<svg xmlns="http://www.w3.org/2000/svg">
<defs>
<font
   vert-adv-y="90"
   vert-origin-y="90"
   vert-origin-x="45"
   horiz-origin-y="0"
   horiz-origin-x="0"
   horiz-adv-x="2048"
   id="EmbeddedFont_1">
   <font-face
   id="font-face2"
   descent="450"
   ascent="1852"
   font-style="normal"
   font-weight="normal"
   units-per-em="2048"
   font-family="Arial" />
   <missing-glyph
   id="missing-glyph4"
   d="M 0,0 L 2047,0 2047,2047 0,2047 0,0 Z"
   horiz-adv-x="2048" />
   <glyph
   id="glyph6"
   d="M 87,0 L 87,209 280,209 280,44 C 280,-45 270,-110 249,-149 220,-203 176,-244 115,-271 L 71,-200 C 107,-185 134,-162 152,-130 169,-99 179,-55 181,0 L 87,0 Z M 397,0 L 397,209 590,209 590,44 C 590,-45 580,-110 559,-149 530,-203 486,-244 425,-271 L 381,-200 C 417,-185 444,-162 462,-130 479,-99 489,-55 491,0 L 397,0 Z"
   horiz-adv-x="530"
   unicode="„" />
   <glyph
   id="glyph8"
   d="M 276,1220 L 276,1011 83,1011 83,1176 C 83,1265 94,1330 115,1370 143,1423 187,1464 248,1491 L 292,1421 C 255,1406 228,1383 211,1353 194,1322 184,1278 182,1220 L 276,1220 Z M 586,1220 L 586,1011 393,1011 393,1176 C 393,1265 404,1330 425,1370 453,1423 497,1464 558,1491 L 602,1421 C 565,1406 538,1383 521,1353 504,1322 494,1278 492,1220 L 586,1220 Z"
   horiz-adv-x="504"
   unicode="“" />
   <glyph
   id="glyph10"
   d="M 528,161 L 554,2 C 503,-9 458,-14 418,-14 353,-14 302,-4 266,17 230,38 205,65 190,99 175,132 168,203 168,311 L 168,922 36,922 36,1062 168,1062 168,1325 347,1433 347,1062 528,1062 528,922 347,922 347,301 C 347,250 350,217 357,202 363,187 373,176 388,167 402,158 422,154 449,154 469,154 495,156 528,161 Z"
   horiz-adv-x="504"
   unicode="t" />
   <glyph
   id="glyph12"
   d="M 133,0 L 133,1062 295,1062 295,901 C 336,976 375,1026 410,1050 445,1074 483,1086 525,1086 586,1086 647,1067 710,1028 L 648,861 C 604,887 560,900 516,900 477,900 441,888 410,865 379,841 356,808 343,766 323,702 313,632 313,556 L 313,0 133,0 Z"
   horiz-adv-x="557"
   unicode="r" />
   <glyph
   id="glyph14"
   d="M 135,-407 L 135,1062 299,1062 299,924 C 338,978 381,1019 430,1046 479,1073 538,1086 607,1086 698,1086 778,1063 847,1016 916,969 969,904 1004,819 1039,734 1057,640 1057,539 1057,430 1038,333 999,246 960,159 903,92 829,46 754,-1 676,-24 594,-24 534,-24 480,-11 433,14 385,39 346,71 315,110 L 315,-407 135,-407 Z M 298,525 C 298,388 326,287 381,222 436,157 503,124 582,124 662,124 731,158 788,226 845,293 873,398 873,540 873,675 845,777 790,844 734,911 667,945 590,945 513,945 446,909 387,838 328,766 298,662 298,525 Z"
   horiz-adv-x="901"
   unicode="p" />
   <glyph
   id="glyph16"
   d="M 68,531 C 68,728 123,873 232,968 323,1047 435,1086 566,1086 712,1086 831,1038 924,943 1017,847 1063,715 1063,546 1063,409 1043,302 1002,224 961,145 901,84 823,41 744,-2 659,-24 566,-24 417,-24 297,24 206,119 114,214 68,352 68,531 Z M 253,531 C 253,395 283,293 342,226 401,158 476,124 566,124 655,124 730,158 789,226 848,294 878,398 878,537 878,668 848,768 789,836 729,903 655,937 566,937 476,937 401,903 342,836 283,769 253,667 253,531 Z"
   horiz-adv-x="980"
   unicode="o" />
   <glyph
   id="glyph18"
   d="M 135,0 L 135,1062 297,1062 297,911 C 375,1028 488,1086 635,1086 699,1086 758,1075 812,1052 865,1029 905,998 932,961 959,924 977,879 988,828 995,795 998,736 998,653 L 998,0 818,0 818,646 C 818,719 811,774 797,811 783,847 758,876 723,898 687,919 645,930 597,930 520,930 454,906 399,857 343,808 315,716 315,580 L 315,0 135,0 Z"
   horiz-adv-x="848"
   unicode="n" />
   <glyph
   id="glyph20"
   d="M 862,342 L 1048,319 C 1019,210 964,126 885,66 806,6 704,-24 581,-24 426,-24 303,24 212,120 121,215 75,349 75,522 75,701 121,839 213,938 305,1037 424,1086 571,1086 713,1086 829,1038 919,941 1009,844 1054,708 1054,533 1054,522 1054,506 1053,485 L 261,485 C 268,368 301,279 360,217 419,155 493,124 582,124 648,124 704,141 751,176 798,211 835,266 862,342 Z M 271,633 L 864,633 C 856,722 833,789 796,834 739,903 664,938 573,938 490,938 421,910 365,855 308,800 277,726 271,633 Z"
   horiz-adv-x="980"
   unicode="e" />
   <glyph
   id="glyph22"
   d="M 824,0 L 824,134 C 757,29 658,-24 527,-24 442,-24 365,-1 294,46 223,93 168,158 129,242 90,325 70,421 70,530 70,636 88,732 123,819 158,905 211,971 282,1017 353,1063 432,1086 519,1086 583,1086 640,1073 690,1046 740,1019 781,983 812,940 L 812,1466 991,1466 991,0 824,0 Z M 255,530 C 255,394 284,292 341,225 398,158 466,124 544,124 623,124 690,156 745,221 800,285 827,383 827,515 827,660 799,767 743,835 687,903 618,937 536,937 456,937 389,904 336,839 282,774 255,671 255,530 Z"
   horiz-adv-x="927"
   unicode="d" />
   <glyph
   id="glyph24"
   d="M 828,131 C 761,74 697,34 636,11 574,-12 508,-24 437,-24 320,-24 231,5 168,62 105,119 74,191 74,280 74,332 86,380 110,423 133,466 164,500 203,526 241,552 284,572 332,585 367,594 421,603 492,612 637,629 744,650 813,674 814,699 814,714 814,721 814,794 797,846 763,876 717,917 649,937 558,937 473,937 411,922 371,893 330,863 300,810 281,735 L 105,759 C 121,834 147,895 184,942 221,988 274,1024 343,1049 412,1074 493,1086 584,1086 675,1086 748,1075 805,1054 862,1033 903,1006 930,974 957,941 975,900 986,851 992,820 995,765 995,685 L 995,445 C 995,278 999,172 1007,128 1014,83 1029,41 1052,0 L 864,0 C 845,37 833,81 828,131 Z M 813,533 C 748,506 650,484 519,465 445,454 393,442 362,429 331,416 308,396 291,371 274,345 266,316 266,285 266,237 284,197 321,165 357,133 410,117 480,117 549,117 611,132 665,163 719,193 759,234 784,287 803,328 813,388 813,467 L 813,533 Z"
   horiz-adv-x="980"
   unicode="a" />
   <glyph
   id="glyph26"
   d="M 92,471 L 275,487 C 284,414 304,354 336,307 367,260 416,222 483,193 550,164 625,149 708,149 782,149 847,160 904,182 961,204 1003,234 1031,273 1058,311 1072,353 1072,398 1072,444 1059,484 1032,519 1005,553 961,582 900,605 861,620 774,644 639,677 504,709 410,739 356,768 286,805 234,850 200,905 165,959 148,1020 148,1087 148,1161 169,1230 211,1295 253,1359 314,1408 395,1441 476,1474 565,1491 664,1491 773,1491 869,1474 952,1439 1035,1404 1098,1352 1143,1284 1188,1216 1212,1139 1215,1053 L 1029,1039 C 1019,1132 985,1202 928,1249 870,1296 785,1320 672,1320 555,1320 469,1299 416,1256 362,1213 335,1161 335,1100 335,1047 354,1004 392,970 429,936 527,901 685,866 842,830 950,799 1009,772 1094,733 1157,683 1198,623 1239,562 1259,493 1259,414 1259,336 1237,263 1192,194 1147,125 1083,71 1000,33 916,-6 822,-25 717,-25 584,-25 473,-6 384,33 294,72 224,130 173,208 122,285 95,373 92,471 Z"
   horiz-adv-x="1139"
   unicode="S" />
   <glyph
   id="glyph28"
   d="M 99,714 C 99,957 164,1148 295,1286 426,1423 594,1492 801,1492 936,1492 1058,1460 1167,1395 1276,1330 1359,1240 1416,1125 1473,1009 1501,878 1501,731 1501,582 1471,449 1411,332 1351,215 1266,126 1156,66 1046,5 927,-25 800,-25 662,-25 539,8 430,75 321,142 239,233 183,348 127,463 99,585 99,714 Z M 299,711 C 299,534 347,395 442,294 537,192 656,141 799,141 945,141 1065,192 1160,295 1254,398 1301,543 1301,732 1301,851 1281,956 1241,1045 1200,1134 1141,1203 1064,1252 986,1301 899,1325 802,1325 665,1325 547,1278 448,1184 349,1089 299,932 299,711 Z"
   horiz-adv-x="1404"
   unicode="O" />
   <glyph
   id="glyph30"
   d="M 162,0 L 162,1466 1222,1466 1222,1293 356,1293 356,844 1167,844 1167,672 356,672 356,173 1256,173 1256,0 162,0 Z"
   horiz-adv-x="1059"
   unicode="E" />
   <glyph
   id="glyph32"
   d="M 1083,641 L 112,226 112,405 881,724 112,1040 112,1219 1083,809 1083,641 Z"
   horiz-adv-x="953"
   unicode="&gt;" />
   <glyph
   id="glyph34"
   d="M 1082,862 L 114,862 114,1030 1082,1030 1082,862 Z M 1082,417 L 114,417 114,585 1082,585 1082,417 Z"
   horiz-adv-x="953"
   unicode="=" />
   <glyph
   id="glyph36"
   d="M 112,641 L 112,809 1083,1219 1083,1040 313,724 1083,405 1083,226 112,641 Z"
   horiz-adv-x="953"
   unicode="&lt;" />
   <glyph
   id="glyph38"
   d="M 0,-25 L 425,1491 569,1491 145,-25 0,-25 Z"
   horiz-adv-x="557"
   unicode="/" />
   <glyph
   id="glyph40"
   d="M 65,440 L 65,621 618,621 618,440 65,440 Z"
   horiz-adv-x="557"
   unicode="-" />
   <glyph
   id="glyph42"
   d="M 513,237 L 513,639 114,639 114,807 513,807 513,1206 683,1206 683,807 1082,807 1082,639 683,639 683,237 513,237 Z"
   horiz-adv-x="953"
   unicode="+" />
   <glyph
   id="glyph44"
   horiz-adv-x="556"
   unicode=" " />
  </font>
 </defs>
 <defs
   id="defs102">
  <font
   vert-adv-y="90"
   vert-origin-y="90"
   vert-origin-x="45"
   horiz-origin-y="0"
   horiz-origin-x="0"
   horiz-adv-x="2048"
   id="EmbeddedFont_2">
   <font-face
   id="font-face49"
   descent="450"
   ascent="2064"
   font-style="normal"
   font-weight="normal"
   units-per-em="2048"
   font-family="Symbol" />
   <missing-glyph
   id="missing-glyph51"
   d="M 0,0 L 2047,0 2047,2047 0,2047 0,0 Z"
   horiz-adv-x="2048" />
   <glyph
   id="glyph53"
   d="M 1356,-204 L 43,-204 43,-168 712,663 43,1480 43,1517 1321,1517 1348,1180 1308,1180 C 1297,1272 1272,1338 1231,1377 1190,1416 1132,1436 1059,1436 L 319,1436 881,749 252,-28 1070,-28 C 1117,-28 1168,-19 1223,-1 1261,12 1293,34 1318,67 1343,99 1363,149 1380,218 L 1420,211 1356,-204 Z"
   horiz-adv-x="1351"
   unicode="" />
   <glyph
   id="glyph55"
   d="M 1432,178 L 76,178 76,278 1536,278 1681,399 C 1701,416 1743,447 1808,494 1688,586 1597,660 1536,715 L 76,715 76,813 1432,813 C 1363,883 1308,952 1265,1020 L 1379,1020 C 1458,925 1555,828 1671,730 1786,631 1878,562 1946,523 L 1946,467 C 1856,415 1758,343 1653,251 1548,158 1456,65 1379,-28 L 1265,-28 C 1307,40 1363,109 1432,178 Z"
   horiz-adv-x="1879"
   unicode="" />
   <glyph
   id="glyph57"
   d="M 589,814 L 1946,814 1946,715 486,715 341,594 C 320,577 278,546 214,499 333,407 424,333 486,277 L 1946,277 1946,180 589,180 C 658,110 714,41 757,-28 L 643,-28 C 564,68 467,165 352,264 236,362 144,430 76,469 L 76,525 C 166,577 264,649 369,742 474,834 566,927 643,1020 L 757,1020 C 714,952 658,883 589,814 Z"
   horiz-adv-x="1879"
   unicode="" />
   <glyph
   id="glyph59"
   d="M 1580,178 L 554,180 C 623,110 679,41 722,-28 L 608,-28 C 529,68 432,165 317,264 201,362 109,430 41,469 L 41,525 C 131,577 229,649 334,742 439,834 531,927 608,1020 L 722,1020 C 679,952 623,883 554,814 L 1580,814 C 1515,877 1460,946 1413,1020 L 1527,1020 C 1606,925 1703,828 1819,730 1934,631 2026,562 2094,523 L 2094,467 C 2004,415 1906,343 1801,251 1696,158 1604,65 1527,-28 L 1413,-28 C 1455,40 1511,109 1580,178 Z M 1684,278 L 1827,397 C 1848,414 1891,447 1956,494 1836,586 1745,660 1684,715 L 451,715 308,596 C 287,579 244,546 179,499 298,407 389,333 451,277 L 1684,278 Z"
   horiz-adv-x="2039"
   unicode="" />
   <glyph
   id="glyph61"
   d="M 592,0 L 48,916 162,916 619,148 1075,916 1189,916 644,0 592,0 Z"
   horiz-adv-x="1166"
   unicode="" />
   <glyph
   id="glyph63"
   d="M 645,916 L 1189,0 1075,0 618,767 162,0 48,0 593,916 645,916 Z"
   horiz-adv-x="1166"
   unicode="" />
   <glyph
   id="glyph65"
   d="M 48,566 L 1367,566 1367,0 1271,0 1271,471 48,471 48,566 Z"
   horiz-adv-x="1324"
   unicode="" />
   <glyph
   id="glyph67"
   d="M 366,524 C 366,493 355,467 334,446 312,424 286,413 256,413 225,413 199,424 178,446 156,467 145,493 145,524 145,555 156,581 178,603 199,624 225,635 256,635 286,635 312,624 334,603 355,581 366,555 366,524 Z"
   horiz-adv-x="213"
   unicode="" />
   <glyph
   id="glyph69"
   d="M 1050,1869 L 1124,1869 812,-78 316,943 118,852 84,916 385,1067 790,244 1050,1869 Z"
   horiz-adv-x="1007"
   unicode="" />
   <glyph
   id="glyph71"
   d="M 1240,1438 L 445,1438 445,-11 C 445,-56 453,-91 470,-116 482,-134 505,-148 539,-157 559,-163 594,-166 643,-166 L 643,-204 46,-204 46,-166 81,-166 C 140,-166 182,-154 207,-130 232,-107 244,-67 244,-11 L 244,1323 C 244,1378 232,1418 207,1442 182,1466 140,1478 81,1478 L 46,1478 46,1516 1640,1516 1640,1478 1605,1478 C 1546,1478 1505,1466 1480,1443 1455,1419 1443,1379 1443,1323 L 1443,-11 C 1443,-56 1451,-91 1468,-116 1480,-134 1503,-148 1536,-157 1557,-163 1591,-166 1640,-166 L 1640,-204 1043,-204 1043,-166 1078,-166 C 1137,-166 1178,-154 1203,-130 1228,-107 1240,-67 1240,-11 L 1240,1438 Z"
   horiz-adv-x="1589"
   unicode="" />
   <glyph
   id="glyph73"
   d="M 1198,916 L 1198,820 996,820 816,507 1198,507 1198,407 762,407 603,127 C 667,107 728,97 787,97 L 1198,97 1198,0 800,0 C 697,0 614,12 551,37 L 445,-144 337,-144 468,78 C 399,135 352,187 326,234 287,306 267,381 267,459 267,588 313,696 405,784 497,872 628,916 797,916 L 941,916 1032,1075 1142,1075 1052,916 1198,916 Z M 885,820 L 785,820 C 657,820 560,793 494,738 428,683 385,606 366,507 L 706,507 885,820 Z M 651,407 L 367,407 C 382,347 399,302 418,273 436,243 469,207 518,166 L 651,407 Z"
   horiz-adv-x="900"
   unicode="" />
   <glyph
   id="glyph75"
   d="M 1404,916 L 1404,822 575,822 C 442,822 338,788 265,720 192,651 155,566 155,464 155,383 180,310 231,246 281,182 331,145 380,134 479,112 543,101 572,101 L 1404,101 1404,0 599,0 C 496,0 414,11 351,34 270,64 201,117 144,194 87,270 58,358 58,458 58,541 81,620 126,694 171,767 229,823 301,860 373,897 472,916 599,916 L 1404,916 Z M 87,-199 L 1404,-199 1404,-293 87,-293 87,-199 Z"
   horiz-adv-x="1350"
   unicode="" />
   <glyph
   id="glyph77"
   d="M 1405,916 L 1405,822 576,822 C 443,822 339,788 266,720 193,651 156,566 156,464 156,383 181,310 232,246 282,182 331,145 380,134 480,112 544,101 573,101 L 1405,101 1405,0 600,0 C 497,0 415,11 352,34 271,64 202,117 145,194 88,270 59,358 59,458 59,541 82,620 127,694 172,767 230,823 302,860 374,897 473,916 600,916 L 1405,916 Z"
   horiz-adv-x="1324"
   unicode="" />
   <glyph
   id="glyph79"
   d="M 1405,916 L 1405,822 1077,822 699,101 1405,101 1405,0 650,0 570,-156 465,-156 546,0 C 431,11 346,31 293,59 224,96 168,151 125,224 81,297 59,375 59,458 59,541 82,620 127,694 172,767 230,823 302,860 374,897 473,916 600,916 L 1024,916 1105,1075 1210,1075 1130,916 1405,916 Z M 972,822 L 576,822 C 442,822 339,788 266,719 193,650 156,566 156,465 156,411 167,360 190,312 212,264 244,223 285,190 326,156 368,135 413,126 500,109 553,101 573,101 L 596,101 972,822 Z"
   horiz-adv-x="1324"
   unicode="" />
   <glyph
   id="glyph81"
   d="M 55,0 L 55,94 884,94 C 1017,94 1120,128 1194,197 1267,265 1304,350 1304,452 1304,533 1279,606 1229,670 1178,733 1129,771 1080,782 981,804 917,815 887,815 L 55,815 55,916 860,916 C 963,916 1045,905 1108,882 1189,852 1259,799 1316,723 1373,646 1401,558 1401,458 1401,375 1379,296 1334,223 1289,149 1230,93 1158,56 1086,19 987,0 860,0 L 55,0 Z M 55,-199 L 1370,-199 1370,-293 55,-293 55,-199 Z"
   horiz-adv-x="1324"
   unicode="" />
   <glyph
   id="glyph83"
   d="M 56,0 L 56,94 885,94 C 1018,94 1121,128 1195,197 1268,265 1305,350 1305,452 1305,533 1280,605 1230,669 1179,733 1130,771 1081,782 982,804 918,815 888,815 L 56,815 56,916 861,916 C 964,916 1046,905 1109,882 1190,852 1260,799 1317,723 1374,646 1402,558 1402,458 1402,375 1380,296 1335,223 1290,149 1231,93 1159,56 1087,19 988,0 861,0 L 56,0 Z"
   horiz-adv-x="1324"
   unicode="" />
   <glyph
   id="glyph85"
   d="M 77,1022 L 170,1022 170,755 C 170,691 178,624 193,555 208,486 231,429 260,384 302,320 352,266 409,223 466,180 527,147 590,126 653,105 718,94 785,94 955,94 1104,159 1232,288 1343,400 1399,554 1399,751 L 1399,1022 1495,1022 1495,727 C 1495,628 1478,536 1444,449 1409,362 1360,285 1297,220 1234,155 1159,102 1074,61 988,20 891,0 784,0 671,0 567,24 474,73 381,122 305,180 246,248 187,315 144,391 117,476 90,560 77,643 77,726 L 77,1022 Z"
   horiz-adv-x="1403"
   unicode="" />
   <glyph
   id="glyph87"
   d="M 1495,0 L 1402,0 1402,268 C 1402,332 1394,399 1379,468 1364,537 1341,593 1312,638 1270,703 1220,757 1163,800 1105,843 1045,876 982,897 919,918 854,928 787,928 617,928 468,863 340,734 229,623 173,468 173,271 L 173,0 77,0 77,296 C 77,394 94,487 129,574 163,661 212,737 275,802 338,867 413,920 499,961 584,1002 681,1022 788,1022 901,1022 1005,998 1098,950 1191,901 1268,843 1327,775 1386,707 1428,631 1455,547 1482,462 1495,379 1495,296 L 1495,0 Z"
   horiz-adv-x="1403"
   unicode="" />
   <glyph
   id="glyph89"
   d="M 671,844 C 671,813 660,787 639,766 618,744 592,733 561,733 530,733 504,744 483,766 461,787 450,813 450,844 450,875 461,901 483,923 504,944 530,955 561,955 592,955 618,944 639,923 660,901 671,875 671,844 Z M 37,576 L 1087,576 1087,477 37,477 37,576 Z M 673,204 C 673,173 662,147 641,126 619,104 593,93 562,93 531,93 505,104 484,126 462,147 451,173 451,204 451,235 462,261 484,283 505,305 531,316 562,316 593,316 619,305 641,283 662,261 673,235 673,204 Z"
   horiz-adv-x="1033"
   unicode="" />
   <glyph
   id="glyph91"
   d="M 191,964 L 563,594 935,964 1004,896 633,523 1004,153 935,83 563,454 191,83 121,153 493,524 121,894 191,964 Z"
   horiz-adv-x="874"
   unicode="" />
   <glyph
   id="glyph93"
   d="M 60,222 L 60,332 902,747 60,1165 60,1271 1066,773 1066,722 60,222 Z M 60,96 L 1066,96 1066,0 60,0 60,96 Z"
   horiz-adv-x="980"
   unicode="" />
   <glyph
   id="glyph95"
   d="M 515,1270 L 612,1270 612,791 1087,791 1087,694 612,694 612,219 515,219 515,694 37,694 37,791 515,791 515,1270 Z M 37,99 L 1087,99 1087,0 37,0 37,99 Z"
   horiz-adv-x="1033"
   unicode="" />
   <glyph
   id="glyph97"
   d="M 1066,1271 L 1066,1161 224,746 1066,328 1066,222 60,720 60,771 1066,1271 Z M 60,96 L 1066,96 1066,0 60,0 60,96 Z"
   horiz-adv-x="980"
   unicode="" />
   <glyph
   id="glyph99"
   d="M 520,1258 L 520,1199 C 483,1179 464,1120 464,1020 L 464,1002 520,1002 520,845 363,845 363,977 C 363,1138 415,1232 520,1258 Z M 245,1258 L 245,1199 C 208,1179 189,1120 189,1020 L 189,1002 245,1002 245,845 88,845 88,977 C 88,1138 140,1232 245,1258 Z"
   horiz-adv-x="530"
   unicode="“" />
  </font>
</defs>
</svg>
